<?xml version="1.0" standalone="no"?>
<!DOCTYPE svg PUBLIC "-//W3C//DTD SVG 20010904//EN"
 "http://www.w3.org/TR/2001/REC-SVG-20010904/DTD/svg10.dtd">
<svg version="1.0" xmlns="http://www.w3.org/2000/svg"
 width="512.000000pt" height="512.000000pt" viewBox="0 0 512.000000 512.000000"
 preserveAspectRatio="xMidYMid meet">
<metadata>
Created by potrace 1.14, written by Peter Selinger 2001-2017
</metadata>
<g transform="translate(0.000000,512.000000) scale(0.100000,-0.100000)"
fill="#000000" stroke="none">
<path d="M2940 4453 c-48 -23 -79 -54 -75 -73 2 -11 -1 -19 -8 -17 -7 1 -11
-6 -9 -16 2 -9 -4 -20 -13 -24 -13 -5 -14 -7 -3 -14 9 -6 9 -9 1 -9 -8 0 -9
-9 -3 -30 5 -16 6 -30 2 -30 -3 0 3 -7 14 -15 19 -14 19 -14 -1 -15 -17 0 -17
-2 -5 -10 8 -5 11 -10 6 -10 -5 0 -3 -6 3 -13 6 -8 8 -17 5 -20 -11 -10 -10
-147 1 -151 6 -3 6 -5 -1 -5 -10 -1 -11 -79 0 -107 3 -9 1 -12 -4 -9 -17 11
-3 -45 17 -68 10 -11 12 -17 6 -13 -9 5 -13 0 -13 -14 0 -14 4 -19 13 -14 9 6
9 4 1 -7 -5 -8 -9 -20 -8 -26 1 -7 2 -20 3 -29 0 -8 5 -13 9 -10 4 2 8 -11 9
-30 0 -21 -3 -31 -10 -27 -6 4 -7 1 -1 -8 5 -8 9 -18 9 -24 1 -5 5 -9 11 -8 5
1 11 -7 11 -18 1 -11 -2 -17 -8 -14 -5 4 -5 -3 0 -18 6 -14 7 -27 4 -30 -2 -3
-2 -15 2 -28 5 -15 10 -18 15 -9 5 8 9 5 13 -9 3 -12 2 -21 -2 -21 -4 0 -8 -6
-9 -12 -1 -7 -3 -24 -5 -38 -2 -14 -1 -29 2 -35 10 -18 8 -45 -3 -45 -6 0 -5
-4 2 -9 15 -9 15 -17 1 -43 -7 -13 -4 -20 12 -28 16 -9 19 -19 16 -45 -3 -18
-8 -38 -11 -44 -4 -6 -1 -11 6 -11 9 0 9 -3 -2 -10 -11 -7 -11 -10 -2 -10 9 0
10 -5 3 -18 -6 -11 -6 -24 -1 -32 5 -9 4 -20 -2 -28 -9 -10 -9 -15 1 -21 9 -6
9 -15 2 -34 -8 -19 -7 -27 0 -27 8 0 7 -5 -1 -15 -9 -11 -9 -15 -1 -15 8 0 9
-5 3 -16 -5 -9 -6 -31 -2 -50 5 -20 3 -37 -3 -43 -8 -8 -7 -11 2 -11 10 0 11
-3 2 -14 -7 -8 -8 -17 -3 -20 5 -3 8 -17 6 -32 -1 -16 2 -24 9 -21 7 3 12 -5
12 -18 0 -13 -4 -21 -9 -18 -5 3 -4 -3 2 -13 7 -12 7 -25 1 -36 -7 -13 -6 -18
3 -18 9 0 9 -3 0 -12 -16 -16 -15 -31 1 -23 6 4 4 0 -5 -8 -10 -8 -15 -17 -11
-21 4 -4 -1 -4 -11 0 -14 5 -17 4 -11 -5 6 -10 3 -11 -13 -2 -14 7 -23 8 -27
1 -17 -27 -51 20 -35 49 9 17 1 53 -11 46 -4 -3 -6 4 -4 15 2 11 0 20 -5 20
-4 0 -6 10 -3 23 4 18 3 19 -7 7 -9 -12 -11 -9 -7 18 2 21 -1 32 -9 32 -7 0
-11 8 -9 18 3 20 -13 53 -33 68 -9 7 -13 19 -9 32 3 12 0 25 -5 29 -7 4 -8 1
-3 -7 5 -8 4 -11 -2 -7 -6 4 -9 20 -7 36 2 17 -1 33 -6 36 -6 4 -8 11 -5 16 4
5 2 9 -3 9 -5 0 -8 16 -7 35 2 19 0 34 -4 33 -19 -2 -24 4 -11 12 11 7 11 10
2 10 -7 0 -10 5 -7 10 3 6 1 10 -6 10 -7 0 -9 3 -6 7 4 3 1 13 -6 21 -10 13
-9 14 3 7 13 -8 13 -7 1 8 -11 14 -11 17 0 17 9 0 10 3 3 8 -13 9 -28 43 -25
60 1 6 -2 12 -7 12 -5 0 -8 13 -7 30 1 16 -1 27 -6 24 -5 -3 -9 0 -9 6 0 7 -6
10 -13 7 -7 -3 -13 3 -13 13 0 10 5 16 11 12 5 -3 4 1 -2 9 -10 12 -10 18 0
28 9 10 8 11 -5 6 -14 -6 -18 -2 -18 19 0 37 -1 40 -19 53 -11 9 -12 12 -3 13
8 0 10 5 5 13 -4 6 -6 20 -4 31 2 12 -1 16 -10 10 -9 -5 -10 -2 -6 9 4 10 2
17 -5 17 -7 0 -7 4 1 14 9 11 9 16 0 22 -8 5 -9 3 -4 -6 5 -8 4 -11 -2 -7 -15
9 -22 56 -10 60 6 2 1 13 -11 25 -13 13 -17 22 -9 22 9 0 8 3 -2 9 -11 7 -11
9 0 14 10 4 8 6 -4 6 -10 1 -16 5 -13 10 3 5 -1 12 -10 15 -10 4 -14 12 -10
23 4 9 0 23 -8 32 -16 17 -16 37 -2 60 6 9 5 12 -1 8 -6 -4 -16 0 -23 8 -10
12 -10 18 1 32 10 11 10 14 1 9 -8 -5 -11 -1 -9 16 2 12 -2 29 -10 36 -10 10
-11 18 -3 27 8 9 8 15 0 20 -5 3 -10 11 -10 16 0 6 4 8 8 5 5 -3 9 1 9 9 0 8
-5 15 -10 15 -5 0 -6 8 -2 18 10 22 10 32 1 61 -6 17 -5 22 4 16 16 -10 -8 36
-24 47 -7 5 -6 8 3 8 10 0 11 3 2 14 -9 11 -9 15 1 19 10 4 10 6 -1 6 -10 1
-11 4 -2 15 9 11 9 16 0 22 -8 5 -9 3 -4 -6 6 -9 4 -11 -4 -6 -7 5 -10 14 -7
22 3 7 -4 18 -14 24 -11 6 -20 18 -20 26 0 8 -5 12 -10 9 -6 -3 -13 1 -16 10
-6 13 -8 14 -15 3 -5 -8 -9 -8 -9 -2 0 13 -149 17 -165 5 -5 -5 -23 -11 -38
-15 -15 -4 -25 -11 -22 -16 3 -6 1 -10 -6 -10 -7 0 -9 -3 -6 -6 3 -4 -3 -18
-14 -32 -19 -25 -19 -27 -2 -33 17 -7 17 -8 0 -8 -11 -1 -15 -6 -11 -13 4 -6
3 -8 -3 -5 -6 4 -19 -1 -29 -9 -10 -9 -14 -13 -8 -10 7 3 14 -1 18 -9 3 -8 1
-15 -5 -15 -6 0 -1 -8 12 -19 18 -15 23 -29 25 -75 1 -40 -1 -54 -10 -49 -6 4
-6 0 2 -9 10 -13 10 -17 0 -21 -10 -4 -10 -6 1 -6 11 -1 11 -4 0 -18 -8 -9 -9
-14 -4 -11 6 4 11 -2 11 -12 0 -15 -3 -17 -15 -7 -12 10 -13 9 -3 -10 15 -27
15 -36 2 -28 -6 3 -7 -1 -4 -9 3 -9 11 -16 18 -16 7 0 6 -3 -2 -9 -10 -6 -8
-10 9 -14 19 -5 20 -8 9 -21 -10 -13 -10 -16 0 -16 8 0 10 -3 7 -6 -3 -4 -2
-16 4 -27 9 -15 8 -18 -2 -12 -9 6 -11 3 -6 -9 4 -10 7 -20 7 -22 0 -3 4 -3 8
0 5 3 9 -1 9 -9 0 -8 -5 -15 -11 -15 -6 0 -4 -5 4 -10 8 -5 12 -10 7 -10 -4 0
0 -11 9 -25 13 -20 13 -25 3 -25 -11 0 -11 -2 1 -10 11 -7 11 -10 2 -10 -7 0
-10 -5 -7 -10 4 -6 11 -8 16 -5 5 3 7 -8 5 -24 -2 -17 1 -31 7 -31 5 0 4 -6
-3 -15 -10 -12 -8 -14 9 -10 18 3 20 1 11 -15 -7 -13 -7 -21 0 -25 8 -5 7 -11
-1 -21 -9 -11 -9 -14 0 -14 20 0 38 -24 33 -44 -3 -13 -1 -17 6 -12 8 5 10 2
6 -8 -3 -9 -2 -16 3 -16 4 0 8 -15 8 -32 0 -18 5 -32 10 -31 6 1 10 -12 11
-28 1 -15 -3 -26 -7 -23 -15 9 -10 -2 11 -26 16 -18 17 -25 8 -32 -10 -6 -10
-8 0 -8 7 0 10 -4 7 -10 -3 -5 -1 -10 4 -10 6 0 11 -13 11 -28 0 -15 6 -34 13
-41 10 -11 9 -13 -3 -7 -10 5 -10 3 2 -6 15 -13 15 -15 0 -26 -9 -7 -12 -11
-7 -9 12 5 46 -29 37 -37 -3 -3 1 -6 8 -6 7 0 10 -3 7 -7 -4 -3 0 -17 9 -31
11 -17 12 -22 3 -16 -11 6 -12 5 -2 -7 10 -12 10 -18 0 -29 -10 -10 -9 -11 2
-5 11 6 13 4 8 -8 -4 -11 -1 -17 7 -17 9 0 13 -10 11 -30 -2 -21 2 -30 12 -30
12 0 13 -3 4 -14 -8 -9 -8 -16 -2 -20 6 -4 8 -13 4 -21 -3 -10 1 -15 11 -15
14 0 15 -4 6 -20 -6 -11 -7 -20 -3 -20 11 0 32 -48 25 -55 -3 -3 -7 -12 -8
-21 -2 -11 1 -12 11 -4 9 8 12 5 11 -12 -1 -15 4 -22 14 -20 12 3 12 0 -1 -15
-9 -10 -14 -24 -11 -32 2 -8 0 -11 -6 -7 -6 3 -13 -7 -17 -24 -4 -17 -10 -28
-14 -25 -5 2 -8 -8 -7 -23 1 -15 -4 -26 -10 -25 -6 1 -11 -4 -11 -12 0 -8 5
-11 11 -8 6 4 5 -1 -3 -10 -7 -9 -18 -14 -24 -10 -6 3 -7 1 -3 -5 4 -7 2 -12
-4 -12 -6 0 -9 -4 -5 -9 3 -5 1 -12 -5 -16 -5 -3 -10 -15 -10 -27 0 -13 -5
-18 -14 -15 -8 3 -13 -1 -13 -11 0 -34 -3 -43 -13 -37 -5 3 -10 2 -10 -4 0 -5
6 -12 13 -14 9 -4 9 -6 -1 -6 -7 -1 -10 -5 -7 -11 3 -5 1 -10 -4 -10 -6 0 -10
-6 -9 -12 2 -7 -2 -12 -9 -11 -6 2 -15 -6 -18 -17 -4 -11 -11 -20 -17 -20 -6
0 -5 -7 3 -17 10 -11 10 -14 2 -9 -12 7 -18 -5 -14 -27 1 -4 -6 -10 -14 -13
-12 -5 -13 -9 -4 -21 10 -11 10 -13 -1 -11 -8 2 -15 -3 -16 -9 -1 -7 -3 -16
-4 -20 -1 -5 -2 -12 -1 -17 1 -5 -5 -6 -14 -2 -9 3 -13 2 -10 -4 3 -6 1 -10
-5 -10 -6 0 -9 -4 -5 -9 3 -5 1 -12 -5 -16 -6 -4 -8 -10 -5 -15 3 -5 0 -12 -6
-16 -8 -5 -10 -2 -5 7 4 8 1 6 -7 -3 -8 -10 -18 -14 -23 -10 -4 4 -3 0 4 -9
10 -13 9 -19 -3 -29 -9 -7 -14 -22 -13 -34 2 -16 -2 -21 -19 -20 -13 1 -20 -3
-16 -11 2 -7 0 -16 -6 -20 -6 -3 -11 -17 -11 -30 0 -13 -4 -27 -10 -30 -5 -3
-10 -14 -10 -25 0 -10 -7 -21 -16 -24 -9 -4 -14 -9 -10 -13 3 -3 -3 -12 -13
-20 -12 -8 -18 -22 -16 -33 2 -13 -2 -20 -11 -20 -8 0 -13 -3 -13 -7 3 -20 -2
-34 -11 -28 -6 3 -7 -1 -4 -9 3 -9 1 -16 -5 -16 -6 0 -8 -7 -5 -15 4 -8 1 -15
-6 -15 -7 0 -10 -6 -7 -13 3 -8 1 -20 -4 -28 -6 -10 -9 -11 -9 -1 0 10 -3 10
-14 0 -8 -8 -10 -15 -4 -19 5 -3 3 -9 -6 -12 -9 -4 -16 -3 -16 1 0 5 -7 17
-15 28 -15 19 -15 19 -9 -1 7 -20 7 -20 -9 0 -8 11 -13 23 -11 26 2 4 -4 6
-14 5 -10 0 -16 6 -16 16 1 10 -3 18 -10 18 -13 0 -46 35 -46 50 0 6 -7 10
-16 10 -9 0 -12 5 -8 12 4 6 3 8 -4 4 -6 -3 -13 -2 -17 4 -4 6 -10 8 -15 5 -4
-3 -14 3 -21 13 -12 15 -12 16 1 7 9 -5 4 1 -10 15 -14 14 -21 23 -15 20 6 -3
3 2 -7 11 -9 9 -14 19 -11 23 6 6 -12 10 -29 7 -5 0 -8 4 -8 11 0 6 -2 9 -5 6
-8 -8 -66 52 -60 62 3 5 0 12 -6 16 -8 4 -9 3 -5 -4 4 -7 3 -12 -3 -12 -6 0
-13 11 -17 25 -3 14 -10 25 -16 25 -5 0 -6 -6 -2 -12 5 -9 2 -9 -9 1 -9 7 -17
20 -17 29 0 8 -3 13 -6 10 -7 -7 -74 59 -74 73 0 6 -5 7 -10 4 -5 -3 -10 1
-10 9 0 9 -5 16 -10 16 -13 0 -50 37 -50 51 0 5 -5 7 -12 3 -8 -5 -9 -2 -4 11
6 16 4 16 -11 4 -10 -7 -15 -10 -11 -5 3 4 -9 23 -28 43 -19 19 -32 38 -29 43
3 4 -3 7 -13 6 -11 -1 -20 10 -27 32 -5 17 -15 32 -23 32 -7 0 -10 5 -7 10 3
6 -1 10 -9 10 -8 0 -23 13 -33 30 -9 17 -24 30 -33 30 -21 0 -40 20 -40 42 0
10 -4 18 -9 18 -6 0 -8 9 -6 21 4 17 2 19 -10 9 -13 -10 -15 -8 -15 15 0 16
-3 25 -7 22 -3 -4 -11 3 -18 16 -6 12 -17 21 -24 19 -7 -1 -10 2 -6 8 3 5 1
10 -5 10 -7 0 -9 7 -6 16 3 8 2 12 -4 9 -6 -3 -10 1 -10 10 0 9 -4 13 -10 10
-6 -3 -10 -2 -10 3 0 6 -13 24 -30 42 -16 18 -28 35 -26 39 3 4 1 13 -5 21 -8
13 -9 13 -9 0 0 -20 -33 28 -35 51 -2 26 -24 49 -42 42 -12 -5 -14 -3 -8 7 6
10 4 12 -8 7 -9 -3 -23 1 -32 9 -8 9 -15 12 -15 7 0 -4 -7 3 -16 15 -10 15
-22 21 -32 17 -8 -3 -19 0 -23 7 -6 9 -14 5 -29 -13 -12 -13 -19 -17 -15 -9 4
9 0 7 -9 -4 -8 -10 -20 -15 -27 -10 -8 4 -10 3 -5 -4 9 -15 1 -15 -27 -1 -12
7 -19 8 -15 4 11 -11 -12 -36 -25 -28 -6 3 -7 1 -3 -6 4 -6 0 -14 -8 -17 -9
-3 -16 -13 -16 -21 0 -8 -5 -11 -10 -8 -6 3 -10 1 -10 -5 0 -6 -5 -8 -13 -4
-9 6 -9 4 1 -8 11 -14 10 -18 -5 -27 -12 -7 -13 -10 -4 -11 11 0 11 -3 1 -15
-10 -12 -10 -15 1 -15 11 0 11 -2 -1 -10 -13 -9 -13 -11 0 -20 8 -5 11 -10 5
-10 -5 0 -9 -20 -8 -45 1 -36 8 -50 33 -72 17 -15 32 -38 33 -50 0 -12 4 -20
7 -19 8 4 39 -32 33 -38 -4 -3 -2 -6 4 -6 6 0 16 -14 23 -31 9 -20 16 -26 20
-18 5 8 10 5 15 -10 4 -13 11 -18 18 -14 7 4 6 -1 -2 -11 -8 -9 -10 -16 -5
-14 5 2 10 -1 12 -7 2 -5 10 -14 18 -18 8 -4 14 -16 14 -25 0 -15 2 -15 10 -2
8 13 10 12 10 -3 0 -10 6 -20 14 -23 9 -3 12 -12 9 -22 -5 -11 -2 -14 10 -9
12 4 15 1 12 -14 -2 -11 0 -17 6 -14 5 4 9 1 9 -5 0 -6 4 -9 9 -6 4 3 7 -8 5
-24 -3 -21 0 -28 10 -24 8 3 16 -4 20 -18 5 -19 8 -20 16 -8 9 13 14 7 11 -12
0 -5 6 -8 15 -8 8 0 12 -5 9 -10 -3 -6 -1 -10 5 -10 6 0 9 -4 6 -9 -3 -5 1
-12 10 -15 9 -4 14 -13 10 -21 -3 -9 0 -15 9 -15 8 0 15 -4 15 -10 0 -5 7 -10
15 -10 8 0 15 -7 15 -16 0 -8 3 -13 8 -11 4 3 16 -7 26 -21 12 -15 14 -22 5
-17 -8 4 -5 -1 6 -12 13 -14 22 -16 27 -9 5 7 8 3 8 -8 0 -11 3 -17 6 -13 8 8
33 -16 27 -25 -2 -5 3 -8 11 -8 9 0 16 -5 16 -11 0 -5 4 -7 10 -4 5 3 7 0 4
-8 -3 -9 3 -17 17 -20 15 -4 20 -11 15 -23 -5 -12 -2 -15 9 -10 10 4 19 -2 25
-17 5 -12 9 -18 9 -14 1 4 12 -3 25 -15 13 -13 21 -26 19 -30 -2 -5 3 -8 11
-8 9 0 16 -5 16 -11 0 -5 4 -7 10 -4 5 3 7 0 4 -8 -3 -9 3 -16 15 -20 14 -3
19 -10 15 -21 -5 -12 -2 -15 10 -10 12 5 19 0 23 -16 4 -16 8 -18 14 -8 7 10
9 8 9 -6 0 -12 5 -16 15 -13 8 4 17 1 21 -5 5 -7 2 -8 -6 -3 -9 5 -11 4 -6 -3
4 -7 14 -12 22 -12 8 0 13 -3 13 -8 -3 -18 2 -45 7 -40 7 8 50 -34 46 -45 -1
-4 7 -3 18 3 11 6 20 7 19 3 -4 -15 13 -43 22 -37 5 3 9 -3 9 -12 0 -10 3 -15
6 -11 8 7 53 -36 47 -45 -2 -5 3 -8 11 -8 9 0 16 -8 16 -17 0 -9 3 -14 6 -10
6 6 53 -35 49 -43 -1 -3 7 -14 18 -25 11 -11 17 -14 13 -7 -4 6 -2 12 3 12 6
0 11 -7 11 -15 0 -9 7 -15 16 -13 10 2 19 -4 21 -12 4 -13 3 -13 -6 0 -7 10
-11 11 -11 3 0 -7 9 -18 20 -25 11 -7 20 -18 20 -24 0 -6 8 -18 18 -25 15 -12
16 -12 7 1 -5 9 0 4 12 -10 13 -14 23 -21 23 -17 0 4 10 -1 22 -13 12 -11 26
-20 30 -20 5 0 7 -4 4 -8 -3 -5 7 -17 21 -28 15 -10 35 -28 46 -39 11 -11 17
-14 13 -8 -5 9 -2 11 8 7 9 -3 13 -10 10 -15 -3 -5 4 -9 16 -9 12 0 18 -4 15
-10 -3 -5 0 -7 8 -4 8 3 21 -1 28 -8 8 -7 27 -14 44 -16 16 -2 32 -7 35 -11 3
-5 24 -18 48 -30 23 -12 42 -27 42 -34 0 -8 4 -7 10 3 8 12 12 12 18 2 11 -16
66 -46 56 -31 -4 7 2 7 15 -1 12 -6 25 -18 28 -26 5 -13 7 -13 15 -2 8 10 11
10 15 0 2 -6 9 -10 14 -6 5 3 21 -4 35 -15 15 -11 30 -18 35 -15 5 3 9 -3 9
-13 0 -15 2 -16 10 -3 6 9 10 11 10 3 0 -7 7 -10 15 -7 9 4 24 -3 35 -16 11
-13 20 -19 20 -14 0 5 7 -1 15 -13 9 -13 22 -20 30 -17 8 4 15 2 15 -3 0 -5 7
-10 15 -10 8 0 15 5 15 11 0 6 4 4 9 -4 6 -8 7 -18 4 -24 -3 -5 -1 -6 5 -2 6
3 13 2 17 -4 3 -5 1 -10 -6 -10 -7 0 -10 -3 -7 -6 4 -3 17 0 30 7 12 6 20 8
16 4 -10 -10 33 -44 49 -38 7 3 13 0 13 -7 0 -6 4 -9 9 -5 6 3 14 -3 20 -12 8
-13 10 -14 11 -4 0 11 4 10 16 -5 8 -10 13 -13 9 -7 -4 9 -1 11 9 7 9 -3 16
-10 16 -15 0 -5 6 -9 14 -9 8 0 16 -5 18 -11 2 -6 15 -12 30 -12 14 -1 25 -5
23 -8 -2 -3 9 -13 26 -23 29 -17 31 -17 62 3 18 11 28 21 24 21 -4 0 -2 10 5
23 7 12 11 25 10 29 -1 4 7 10 18 13 11 4 20 13 20 21 0 8 4 13 10 9 5 -3 8 6
7 21 -1 17 4 29 13 31 9 3 11 1 5 -4 -5 -4 -11 -14 -13 -22 -3 -12 0 -12 12
-1 12 9 16 10 16 0 0 -7 7 -10 16 -6 9 3 23 -2 32 -12 10 -10 13 -12 8 -5 -6
10 -5 12 7 7 8 -3 18 -12 21 -21 5 -12 9 -13 21 -3 8 7 15 9 15 4 0 -5 11 -9
24 -9 13 0 24 2 24 5 -2 28 5 40 23 40 13 0 18 4 13 12 -5 8 -2 9 10 5 14 -5
17 -3 12 8 -3 8 -1 15 5 15 6 0 7 5 3 12 -5 8 -2 9 10 5 14 -5 17 -3 12 8 -3
9 0 15 9 15 15 0 17 3 19 41 1 22 33 41 51 31 6 -3 7 -1 2 3 -4 5 1 17 10 28
10 11 12 17 6 13 -9 -5 -11 -2 -7 8 3 9 11 14 17 13 7 -1 12 7 12 18 0 11 6
24 13 28 7 5 9 13 6 19 -5 7 0 9 14 6 15 -4 19 -2 15 8 -3 8 0 14 7 14 6 0 8
5 5 10 -3 6 1 10 10 10 9 0 13 5 10 10 -6 9 8 15 29 11 5 -1 4 4 -3 12 -9 12
-8 16 4 21 8 3 15 10 15 16 0 6 -5 8 -12 4 -7 -4 -8 -3 -4 4 4 7 15 12 24 12
15 0 15 2 2 10 -13 8 -12 10 5 11 11 1 24 1 28 0 4 -1 7 7 5 16 -2 10 2 17 9
16 7 -2 10 4 7 12 -4 10 0 15 11 15 14 0 15 3 5 15 -12 15 -11 16 12 19 7 0
13 10 13 21 0 11 7 20 15 20 8 0 17 11 21 25 4 14 7 21 8 17 1 -4 7 -2 15 5 8
7 11 17 8 22 -3 5 2 7 11 3 12 -4 14 0 11 19 -2 13 0 24 6 24 6 0 9 4 6 9 -3
5 2 15 11 22 14 12 16 12 8 -1 -8 -13 -6 -13 8 -1 9 7 14 18 10 24 -4 6 0 8
11 4 10 -4 15 -3 11 4 -9 14 15 40 29 32 6 -4 5 1 -3 10 -9 11 -10 17 -2 17 6
0 10 3 10 8 -1 4 -1 16 0 27 1 15 3 17 10 6 6 -10 12 -5 22 18 8 17 18 31 22
31 5 0 5 -5 1 -12 -5 -7 -3 -8 5 -4 7 5 10 14 7 22 -3 8 0 13 7 11 7 -1 11 4
9 10 -1 7 2 13 8 13 5 0 10 12 10 26 0 14 4 23 9 19 5 -3 12 4 16 15 4 11 11
18 16 15 5 -4 9 1 9 10 0 10 5 13 13 9 8 -5 8 -2 -2 9 -12 15 -11 17 3 17 10
0 14 5 11 10 -3 6 1 10 10 10 9 0 13 5 10 10 -3 6 -1 10 6 10 6 0 9 8 6 19 -3
15 -1 18 11 14 11 -5 14 -2 9 10 -3 9 -2 17 3 17 5 0 11 9 15 20 3 11 9 19 13
17 7 -2 52 39 52 48 1 18 14 34 23 28 6 -4 8 0 4 10 -3 10 -2 17 3 17 5 0 6 7
3 17 -4 11 -3 14 5 9 8 -4 10 -2 6 7 -3 10 4 17 21 21 14 4 23 11 20 16 -3 6
-1 10 5 10 6 0 8 5 4 12 -5 8 -2 9 11 4 15 -5 16 -4 5 9 -11 13 -11 16 -1 13
8 -2 15 8 17 22 3 13 9 27 16 31 6 4 7 13 3 20 -5 8 -5 11 0 7 11 -10 37 11
29 23 -3 5 0 8 6 7 7 -2 15 4 19 12 5 8 14 26 20 39 10 18 10 25 1 31 -9 6 -9
9 1 13 10 4 10 6 2 6 -9 1 -10 8 -3 26 8 20 6 29 -10 45 -11 11 -16 20 -11 20
10 0 9 26 -2 36 -4 4 -2 13 4 20 7 8 7 14 -1 19 -7 4 -7 12 0 26 8 14 7 19 -2
19 -8 0 -9 3 -3 8 15 11 17 32 3 32 -10 0 -10 2 0 9 17 11 17 21 0 32 -11 7
-10 9 1 9 11 0 11 3 -2 18 -10 10 -15 30 -13 47 2 17 4 40 5 53 0 13 5 21 10
18 10 -7 9 13 -2 31 -4 6 -3 15 3 18 8 5 8 11 0 20 -8 10 -8 15 0 20 8 5 8 10
0 20 -7 8 -7 15 -1 19 10 7 10 24 -2 43 -4 6 -3 15 3 18 6 4 7 12 3 18 -10 15
-10 38 0 54 4 6 3 15 -3 18 -8 5 -8 11 0 20 8 10 8 15 0 20 -8 5 -8 10 0 20 8
10 8 15 0 20 -8 5 -8 11 1 21 9 11 9 17 0 28 -9 10 -9 16 -1 21 8 5 8 10 0 20
-8 10 -8 15 0 20 8 5 8 10 0 20 -8 9 -8 15 0 20 6 3 7 12 3 18 -12 19 -8 54 8
73 7 10 9 15 2 11 -6 -4 -14 -3 -18 3 -3 5 -2 10 3 10 13 0 22 39 11 46 -5 3
-7 10 -4 15 3 5 -1 6 -9 3 -12 -4 -14 0 -10 20 3 17 0 26 -8 26 -8 0 -6 5 4
11 11 6 15 16 11 26 -4 10 -2 14 4 10 12 -8 12 11 0 30 -4 6 -3 15 3 18 8 5 7
12 -2 23 -10 12 -10 14 -1 8 9 -5 11 -2 7 8 -3 9 -18 16 -33 16 -20 0 -23 2
-11 10 13 9 13 10 0 11 -8 1 -18 1 -22 0 -4 0 -5 8 -3 19 2 13 -2 20 -11 20
-8 0 -14 4 -14 8 0 5 -12 14 -26 20 -18 9 -23 9 -18 1 5 -8 1 -8 -13 0 -14 7
-23 7 -31 -1 -9 -9 -12 -9 -12 0 0 10 -5 10 -20 2 -15 -8 -20 -8 -21 2 0 7 -5
3 -11 -9 -6 -13 -19 -23 -29 -23 -10 0 -26 -11 -37 -25 -11 -14 -25 -25 -31
-25 -6 0 -11 -5 -11 -11 0 -5 5 -7 12 -3 7 5 8 3 4 -5 -5 -7 -15 -10 -23 -6
-12 4 -13 2 -5 -8 9 -10 8 -17 0 -25 -9 -9 -9 -12 3 -12 11 0 12 -2 1 -9 -15
-9 -20 -119 -7 -141 6 -10 3 -12 -10 -6 -18 6 -18 6 -3 -11 12 -13 14 -23 7
-36 -7 -12 -6 -17 2 -17 7 0 4 -7 -7 -16 -10 -8 -14 -13 -7 -10 6 4 14 2 18
-4 3 -5 1 -10 -5 -10 -6 0 -8 -5 -5 -10 4 -6 10 -8 14 -6 4 3 7 -22 7 -55 -1
-39 -6 -63 -15 -68 -11 -7 -11 -9 0 -14 8 -3 10 -6 4 -6 -11 -1 -12 -188 -1
-198 3 -3 1 -12 -5 -19 -7 -8 -7 -14 1 -19 7 -4 7 -12 0 -25 -7 -13 -6 -20 3
-23 6 -3 3 -6 -7 -6 -20 -1 -20 -1 0 -16 13 -11 14 -14 4 -13 -11 2 -15 -6
-14 -29 0 -18 -5 -33 -10 -33 -6 0 -4 -5 4 -10 13 -9 13 -10 0 -10 -10 0 -7
-7 10 -20 14 -11 20 -20 14 -20 -14 0 -13 -62 1 -72 7 -5 7 -8 0 -8 -16 0 -9
-198 7 -218 11 -13 11 -15 -2 -7 -12 6 -13 5 -2 -6 18 -19 15 -29 -9 -29 -11
0 -17 5 -14 10 3 6 -1 10 -10 10 -10 0 -14 5 -9 13 5 9 4 9 -6 0 -10 -9 -19
-9 -41 2 -15 8 -31 21 -35 27 -6 10 -5 10 7 1 11 -9 14 -7 15 13 1 13 -2 21
-7 18 -10 -6 -10 -5 -14 43 -2 21 1 30 8 26 6 -4 7 -1 1 8 -13 22 -16 51 -3
43 6 -3 4 5 -5 18 -9 14 -13 28 -9 31 3 4 2 7 -3 7 -6 0 -9 15 -7 33 2 17 4
37 4 42 1 21 -13 70 -22 81 -7 8 -6 14 1 19 8 5 8 11 -1 21 -9 11 -8 14 4 14
11 0 13 6 9 22 -3 12 -1 19 5 15 5 -3 10 0 10 8 0 8 -5 15 -11 15 -6 0 -4 5 4
10 13 9 13 10 0 10 -8 0 -21 9 -28 20 -9 14 -9 20 -1 20 8 0 8 5 -1 15 -11 13
-10 14 6 9 15 -6 17 -4 7 6 -9 9 -9 19 -2 33 9 15 8 18 -3 11 -11 -6 -11 -5 1
9 10 13 10 17 1 17 -9 0 -9 4 1 17 10 11 10 14 2 9 -8 -4 -13 -1 -13 9 0 9 -5
13 -11 9 -8 -4 -8 0 0 15 9 16 9 21 -1 21 -9 0 -9 3 2 10 13 9 13 10 0 10 -13
0 -13 1 0 10 12 8 12 10 1 10 -11 0 -11 3 0 16 10 13 10 17 -2 25 -8 5 -10 9
-5 9 5 0 3 6 -3 13 -6 8 -8 17 -4 21 4 4 1 11 -7 16 -13 9 -13 10 0 10 13 0
13 1 0 10 -8 5 -10 10 -4 10 14 0 11 39 -3 48 -6 4 -10 26 -9 49 1 23 -2 39
-6 37 -4 -3 -8 1 -8 8 0 9 -3 9 -10 -2 -9 -13 -10 -13 -11 0 -2 26 3 45 14 52
9 6 9 8 0 8 -7 0 -13 7 -13 15 0 8 -5 15 -11 15 -6 0 -8 7 -5 16 3 8 2 12 -4
9 -6 -3 -10 -1 -10 4 0 6 5 11 11 11 8 0 8 4 2 13 -5 6 -9 19 -8 27 0 8 -6 21
-13 29 -11 12 -11 15 0 22 10 7 10 9 -2 9 -12 0 -12 2 -2 9 11 7 10 9 -3 15
-9 3 -13 11 -10 16 4 6 1 17 -5 25 -9 11 -9 15 -1 15 9 0 9 5 1 20 -8 15 -8
20 2 20 9 0 9 3 -2 10 -8 5 -10 10 -5 10 8 0 10 27 6 118 -1 7 -4 11 -8 9 -13
-8 -13 66 0 82 9 11 9 13 0 8 -6 -4 -14 -3 -18 3 -3 5 -1 10 5 10 8 0 7 6 -1
21 -8 15 -8 19 0 15 15 -10 14 7 -1 22 -7 7 -8 12 -2 12 6 0 9 13 6 30 -2 17
-9 30 -14 30 -5 0 -7 4 -4 9 3 4 -3 18 -13 30 -20 23 -36 28 -26 9 4 -7 -2 -4
-12 7 -20 22 -60 34 -48 15 4 -7 -4 -4 -19 5 -26 17 -38 33 -13 19 7 -5 6 -1
-3 10 -13 17 -15 17 -35 -7 -13 -16 -28 -23 -43 -21 -15 3 -21 0 -16 -7 4 -8
0 -8 -15 0 -17 10 -21 9 -21 -3 0 -9 -9 -20 -20 -26 -11 -6 -18 -15 -15 -21 4
-5 1 -8 -7 -7 -8 2 -13 -7 -12 -25 0 -16 -4 -26 -11 -23 -13 5 -15 -37 -1 -46
6 -4 5 -12 -3 -21 -8 -11 -9 -17 -1 -22 6 -3 7 -12 3 -18 -12 -19 -10 -46 3
-51 8 -3 11 -15 8 -31 -3 -19 -1 -24 7 -19 8 5 9 3 3 -7 -12 -20 -11 -169 1
-169 6 0 4 -4 -3 -9 -7 -4 -12 -13 -10 -18 2 -6 -1 -11 -7 -12 -5 -1 -10 18
-10 41 -1 24 -5 49 -9 57 -7 10 -5 12 5 7 8 -4 6 -1 -3 7 -13 10 -15 16 -6 25
7 7 8 12 3 12 -6 0 -11 15 -12 32 -2 18 -7 34 -12 36 -6 2 -7 12 -1 27 6 16 6
27 -1 31 -6 4 -6 11 2 20 8 9 8 14 2 12 -6 -2 -12 2 -13 7 -1 6 -6 18 -11 28
-5 9 -6 17 -1 17 5 0 9 7 9 15 0 8 -4 15 -9 15 -5 0 -4 10 3 21 6 12 7 24 3
28 -11 8 -14 41 -5 41 4 0 8 7 8 15 0 8 -4 15 -9 15 -5 0 -4 10 3 21 6 12 7
24 3 28 -11 8 -14 41 -5 41 4 0 8 7 8 15 0 8 -4 15 -9 15 -5 0 -4 10 3 21 8
16 8 23 -1 29 -9 6 -9 9 1 13 11 4 11 6 1 6 -7 1 -10 6 -7 11 3 6 0 10 -7 10
-9 0 -9 3 2 10 13 8 12 10 -2 10 -16 0 -23 11 -19 33 1 7 -15 11 -31 8 -5 0
-8 5 -8 13 0 8 -5 18 -12 22 -7 5 -8 2 -3 -7 5 -8 -3 -4 -16 8 -20 18 -28 20
-37 11 -9 -9 -12 -9 -12 -1 0 12 -38 12 -58 -1 -7 -4 -12 -3 -12 1 0 13 -31
11 -60 -4z m437 -1368 c3 -38 9 -74 14 -80 5 -5 9 -52 9 -105 0 -53 4 -100 9
-106 5 -5 12 -82 16 -172 l7 -163 -29 7 c-15 4 -31 9 -35 11 -5 2 -8 80 -8
173 0 102 -4 171 -10 175 -11 7 -13 223 -3 330 6 67 7 68 16 35 5 -19 12 -66
14 -105z m-30 -507 c-1 -46 -3 -11 -3 77 0 88 2 125 3 83 2 -42 2 -114 0 -160z
m7 -103 c3 -8 1 -15 -4 -15 -6 0 -10 7 -10 15 0 8 2 15 4 15 2 0 6 -7 10 -15z"/>
<path d="M2010 4156 c0 -2 8 -10 18 -17 15 -13 16 -12 3 4 -13 16 -21 21 -21
13z"/>
<path d="M330 2456 c0 -2 8 -10 18 -17 15 -13 16 -12 3 4 -13 16 -21 21 -21
13z"/>
</g>
</svg>
