<?xml version="1.0" standalone="no"?>
<!DOCTYPE svg PUBLIC "-//W3C//DTD SVG 20010904//EN"
 "http://www.w3.org/TR/2001/REC-SVG-20010904/DTD/svg10.dtd">
<svg version="1.0" xmlns="http://www.w3.org/2000/svg"
 width="512.000000pt" height="512.000000pt" viewBox="0 0 512.000000 512.000000"
 preserveAspectRatio="xMidYMid meet">

<g transform="translate(0.000000,512.000000) scale(0.100000,-0.100000)"
fill="#000000" stroke="none">
<path d="M2920 4438 c-47 -33 -92 -123 -84 -168 3 -19 10 -125 14 -235 4 -110
13 -226 19 -257 19 -100 31 -166 39 -223 4 -30 13 -60 20 -67 8 -8 10 -41 5
-113 -4 -80 -3 -107 9 -126 12 -20 13 -57 6 -239 -6 -152 -6 -225 2 -250 6
-19 10 -71 8 -115 l-3 -80 -52 -3 -53 -3 0 44 c0 30 -9 60 -25 88 -14 24 -25
54 -25 66 0 12 -4 25 -10 28 -5 3 -10 17 -10 30 0 13 -4 27 -10 30 -5 3 -10
17 -10 31 0 13 -4 32 -9 42 -5 9 -14 37 -21 62 -7 25 -16 53 -21 62 -5 10 -9
29 -9 42 0 14 -4 28 -10 31 -5 3 -10 17 -10 30 0 13 -4 27 -10 30 -5 3 -10 15
-10 27 0 11 -6 32 -14 46 -8 15 -19 47 -26 72 -7 25 -16 53 -21 62 -5 10 -9
27 -9 38 0 11 -4 28 -9 38 -5 9 -14 37 -21 62 -7 25 -15 52 -20 60 -4 9 -11
30 -14 48 -4 17 -12 34 -17 37 -5 4 -9 17 -9 30 0 13 -4 27 -10 30 -5 3 -10
19 -10 35 0 16 -4 31 -9 34 -5 3 -11 18 -14 33 -4 16 -11 51 -18 78 -6 28 -13
97 -16 154 -3 68 -9 112 -19 125 -8 11 -14 34 -15 51 -1 40 -28 85 -69 113
-42 28 -155 32 -198 5 -53 -33 -82 -66 -82 -94 0 -15 -4 -31 -10 -34 -5 -3
-10 -21 -10 -40 0 -19 5 -37 10 -40 6 -4 10 -60 10 -135 0 -75 4 -131 10 -135
6 -3 10 -24 10 -45 0 -21 5 -42 10 -45 6 -3 10 -24 10 -45 0 -21 5 -42 10 -45
6 -3 10 -17 10 -31 0 -13 4 -32 9 -42 26 -52 41 -96 41 -122 0 -16 5 -32 10
-35 6 -3 10 -17 10 -31 0 -13 4 -32 9 -42 5 -9 14 -37 21 -62 7 -25 16 -53 21
-62 5 -10 9 -26 9 -36 0 -10 7 -27 15 -38 8 -10 15 -29 15 -41 0 -12 5 -25 10
-28 6 -3 10 -17 10 -30 0 -13 5 -27 10 -30 6 -3 10 -16 10 -27 0 -20 12 -63
30 -113 4 -11 13 -40 20 -65 6 -25 15 -52 20 -60 4 -9 11 -30 14 -48 4 -17 12
-34 17 -37 5 -4 9 -17 9 -30 0 -13 5 -27 10 -30 15 -9 12 -63 -5 -88 -14 -21
-106 -199 -235 -452 -28 -55 -59 -109 -69 -120 -10 -11 -31 -47 -48 -80 -17
-33 -54 -103 -82 -155 -29 -52 -70 -132 -93 -177 -24 -48 -47 -83 -56 -83 -28
0 -881 840 -882 869 -1 15 -74 114 -151 204 -20 23 -39 52 -43 64 -4 11 -18
28 -31 37 -14 9 -25 22 -25 29 0 19 -37 51 -87 76 -76 38 -174 22 -236 -37
-20 -20 -37 -41 -37 -48 0 -6 -7 -17 -15 -24 -11 -9 -15 -34 -15 -94 0 -75 2
-85 25 -106 14 -13 25 -28 25 -33 0 -5 15 -27 33 -48 17 -22 47 -56 65 -78 17
-21 32 -42 32 -46 0 -4 17 -27 38 -51 48 -55 83 -100 102 -130 40 -62 275
-303 590 -604 101 -96 218 -208 259 -249 216 -210 295 -277 376 -315 44 -21
105 -51 135 -67 61 -32 164 -82 225 -109 22 -10 92 -43 155 -73 63 -30 142
-67 175 -82 87 -39 178 -83 195 -95 33 -21 105 -50 126 -50 12 0 26 6 32 13
15 18 72 124 72 134 0 5 -36 24 -80 43 -45 19 -89 43 -100 53 -11 9 -23 17
-28 17 -5 0 -22 6 -38 14 -16 8 -49 23 -74 34 -25 11 -83 36 -130 57 -47 20
-91 46 -99 56 -7 10 -19 19 -27 19 -7 0 -59 22 -116 48 -57 27 -120 57 -141
66 -21 10 -40 23 -43 31 -3 7 -18 15 -34 19 -16 3 -66 23 -112 45 -77 36 -101
56 -338 283 -140 134 -256 252 -258 261 -8 40 37 11 147 -95 64 -62 179 -174
257 -248 116 -113 150 -140 200 -160 32 -13 68 -31 79 -40 11 -9 38 -25 60
-35 22 -10 95 -44 163 -76 68 -33 126 -59 130 -59 4 0 13 -9 20 -20 7 -11 18
-20 25 -20 13 0 143 -53 217 -89 24 -12 49 -21 56 -21 6 0 17 -7 24 -15 12
-14 90 -55 104 -55 3 0 30 -11 61 -25 31 -14 60 -23 65 -20 14 8 13 61 -2 84
-6 10 -8 26 -5 35 9 22 38 20 44 -4 3 -11 14 -20 24 -20 11 0 19 -4 19 -10 0
-5 9 -10 20 -10 11 0 20 -6 20 -13 0 -8 -9 -22 -20 -32 -11 -10 -20 -23 -20
-30 0 -7 -9 -20 -20 -30 -24 -22 -26 -35 -5 -35 8 0 34 -9 58 -19 23 -11 56
-22 72 -26 27 -5 34 -1 60 36 17 23 45 58 63 79 17 21 32 40 32 44 0 3 20 31
45 62 25 30 45 60 45 66 0 6 25 39 55 73 30 35 55 68 55 75 0 6 10 21 23 33
13 12 48 60 79 107 31 47 66 94 78 105 12 11 26 29 31 40 5 11 23 38 39 60 53
70 90 126 90 134 0 4 12 18 26 32 14 13 47 55 73 93 25 38 63 94 84 124 20 31
47 67 60 81 20 23 40 52 82 122 6 9 37 53 70 99 110 151 107 145 101 214 -11
118 -16 313 -14 531 4 306 1 542 -9 660 -9 113 -19 132 -91 180 -36 24 -49 27
-87 22 -60 -9 -118 -40 -148 -79 -24 -31 -25 -40 -26 -178 -1 -80 1 -173 5
-208 4 -42 2 -67 -6 -77 -15 -18 -27 -414 -14 -441 5 -11 9 -86 9 -169 0 -82
3 -159 5 -170 4 -18 1 -20 -34 -17 -73 6 -81 18 -84 134 -2 56 -7 107 -11 113
-8 9 -17 98 -28 250 -2 33 -6 96 -9 140 -3 44 -10 84 -15 90 -5 5 -9 39 -9 75
0 36 -4 70 -9 75 -5 6 -11 33 -14 60 -3 28 -10 71 -16 98 -31 133 -51 228 -57
262 -3 17 -8 37 -11 45 -3 8 -7 60 -9 115 -7 225 -15 310 -34 351 -23 50 -31
57 -105 82 -54 19 -64 20 -99 8 -54 -19 -102 -59 -127 -108 -17 -33 -20 -51
-14 -102 3 -33 8 -103 11 -155 5 -83 4 -93 -9 -82 -8 6 -18 31 -21 54 -3 23
-10 69 -17 102 -6 33 -14 150 -18 260 -4 130 -10 208 -18 222 -7 12 -32 37
-55 57 -40 35 -45 36 -118 36 -63 0 -83 -4 -110 -22z m120 -367 c0 -22 5 -43
10 -46 6 -3 10 -44 10 -90 0 -46 5 -87 10 -90 6 -3 10 -33 10 -65 0 -32 5 -62
10 -65 6 -3 10 -19 10 -34 0 -15 4 -31 9 -37 11 -11 20 -84 27 -214 3 -52 10
-100 15 -107 7 -8 8 -94 3 -245 -6 -195 -4 -239 8 -263 20 -41 13 -275 -8
-275 -11 0 -14 20 -14 90 0 50 -5 98 -11 108 -9 14 -9 79 -3 243 8 187 7 228
-5 247 -11 18 -12 46 -7 135 6 92 4 116 -8 132 -9 11 -16 41 -16 67 0 26 -4
50 -10 53 -5 3 -10 31 -10 61 0 30 -4 54 -10 54 -5 0 -10 18 -10 39 0 22 -4
43 -10 46 -5 3 -10 33 -10 65 0 32 -4 62 -10 65 -5 3 -10 42 -10 86 0 64 3 79
15 79 11 0 15 -11 15 -39z m-785 -53 c2 -13 6 -54 8 -93 4 -67 27 -176 46
-212 16 -32 31 -89 31 -116 0 -30 -18 -37 -26 -9 -3 9 -10 25 -15 34 -5 10 -9
26 -9 35 0 10 -7 27 -15 37 -8 11 -15 34 -15 52 0 18 -4 36 -10 39 -5 3 -10
20 -10 36 0 17 -4 38 -9 47 -5 9 -11 52 -13 95 -5 70 -3 77 13 77 11 0 21 -9
24 -22z m1215 -273 c0 -34 6 -65 16 -80 9 -14 13 -32 10 -41 -3 -8 1 -29 10
-45 16 -32 16 -104 -1 -104 -5 0 -11 14 -13 30 -2 17 -8 34 -13 40 -5 5 -9 26
-9 46 0 21 -4 41 -10 44 -5 3 -10 42 -10 86 0 46 4 79 10 79 6 0 10 -25 10
-55z m-1110 -219 c0 -13 7 -29 15 -36 8 -7 15 -25 15 -41 0 -15 4 -30 9 -33 8
-5 18 -46 24 -102 1 -11 8 -28 16 -37 14 -18 9 -47 -9 -47 -5 0 -10 14 -10 30
0 17 -4 30 -10 30 -5 0 -10 12 -10 26 0 14 -7 32 -15 40 -8 9 -15 27 -15 40 0
14 -4 33 -9 43 -16 29 -26 125 -12 117 6 -4 11 -18 11 -30z m1184 -116 c3 -22
9 -58 12 -80 3 -22 10 -43 15 -46 5 -3 9 -27 9 -53 0 -26 4 -51 9 -56 9 -9 12
-40 27 -250 3 -44 9 -84 14 -89 4 -4 6 -41 3 -82 -4 -50 -2 -78 6 -88 8 -9 11
-42 10 -88 -2 -40 2 -82 8 -92 11 -21 6 -95 -8 -111 -5 -5 -9 8 -9 31 0 22 -4
44 -9 49 -10 11 -21 147 -20 263 0 43 -4 79 -12 88 -7 9 -11 43 -10 93 1 47
-2 82 -9 86 -6 3 -10 44 -10 95 0 49 -4 92 -10 95 -5 3 -10 21 -10 40 0 19 -4
37 -10 40 -5 3 -10 24 -10 45 0 21 -4 42 -10 45 -11 7 -14 98 -4 108 12 12 22
-3 28 -43z m-194 -87 c0 -30 -2 -34 -15 -23 -8 7 -15 28 -15 47 0 30 2 34 15
23 8 -7 15 -28 15 -47z m18 -99 c2 -27 7 -53 13 -58 5 -6 9 -42 9 -81 0 -39 4
-75 9 -80 5 -6 12 -53 15 -105 3 -52 10 -173 17 -268 6 -95 10 -175 8 -177 -2
-2 -25 -1 -50 2 l-46 5 -7 297 c-7 320 0 524 18 518 6 -2 12 -26 14 -53z m788
-71 c-16 -301 -19 -534 -6 -558 10 -18 11 -55 7 -139 -3 -73 -2 -117 5 -124
12 -12 1 -139 -13 -147 -5 -4 -9 -15 -9 -26 0 -11 -13 -34 -30 -51 -16 -16
-30 -33 -30 -38 0 -11 -29 -40 -41 -40 -16 0 -10 28 10 47 10 10 22 28 25 40
4 12 20 33 36 47 22 18 30 34 31 63 2 21 -1 46 -6 53 -16 25 -22 470 -10 768
7 186 11 222 23 222 13 0 14 -17 8 -117z m-1686 32 c0 -14 -4 -25 -9 -25 -12
0 -19 21 -13 38 8 21 22 13 22 -13z m20 -64 c0 -16 7 -34 15 -41 8 -7 15 -23
15 -36 0 -12 5 -26 10 -29 6 -3 10 -19 10 -35 0 -16 4 -31 9 -34 5 -3 12 -31
16 -63 4 -36 16 -68 31 -88 13 -18 24 -39 24 -49 0 -9 4 -24 9 -34 16 -30 34
-102 28 -108 -13 -13 -37 6 -42 33 -4 15 -10 37 -14 48 -18 46 -31 93 -31 113
0 12 -4 22 -10 22 -5 0 -10 13 -10 29 0 16 -6 34 -14 40 -8 6 -16 24 -19 39
-27 128 -33 151 -39 158 -12 11 -10 64 2 64 6 0 10 -13 10 -29z m194 -586 c6
-17 -2 -45 -14 -45 -15 0 -22 19 -15 40 8 24 21 26 29 5z m20 -110 c7 -18 -2
-45 -15 -45 -13 0 -22 27 -15 45 3 8 10 15 15 15 5 0 11 -7 15 -15z m-1997
-57 c18 -18 33 -37 33 -43 0 -6 14 -24 30 -40 17 -16 30 -34 30 -40 0 -6 16
-26 35 -45 19 -19 35 -39 35 -46 0 -6 7 -17 15 -24 17 -14 20 -30 5 -30 -29 0
-160 156 -160 191 0 8 -16 24 -35 37 -25 15 -35 30 -35 47 0 33 7 32 47 -7z
m2013 -68 c0 -20 -5 -30 -15 -30 -15 0 -21 40 -8 53 14 15 23 6 23 -23z m413
-88 c-4 -68 -10 -101 -17 -99 -11 4 -10 192 1 210 15 24 21 -19 16 -111z m502
100 c0 -18 -20 -15 -23 4 -3 10 1 15 10 12 7 -3 13 -10 13 -16z m-15 -68 c0
-8 -7 -14 -15 -14 -15 0 -21 21 -9 33 10 9 24 -2 24 -19z m-882 -66 c-3 -47
-21 -55 -26 -12 -4 31 4 54 18 54 7 0 10 -17 8 -42z m852 2 c0 -5 -4 -10 -10
-10 -5 0 -10 5 -10 10 0 6 5 10 10 10 6 0 10 -4 10 -10z m-30 -70 c0 -5 -2
-10 -4 -10 -3 0 -8 5 -11 10 -3 6 -1 10 4 10 6 0 11 -4 11 -10z m-800 -50 c0
-20 -5 -30 -15 -30 -10 0 -15 10 -15 30 0 20 5 30 15 30 10 0 15 -10 15 -30z
m780 -10 c0 -19 -11 -26 -23 -14 -8 8 3 34 14 34 5 0 9 -9 9 -20z m-2410 -156
c82 -81 150 -152 150 -159 0 -7 7 -18 15 -25 8 -7 15 -17 15 -23 0 -6 -10 -1
-22 10 -13 11 -30 24 -40 29 -31 17 -298 285 -298 300 0 33 38 6 180 -132z
m2900 110 c0 -15 -38 -66 -90 -120 -11 -12 -20 -28 -20 -37 0 -8 -16 -29 -35
-46 -19 -17 -35 -36 -35 -44 0 -17 -20 -37 -37 -37 -20 0 -15 19 12 44 14 13
25 30 25 38 0 16 47 68 61 68 5 0 9 9 9 20 0 11 9 25 20 32 11 7 20 23 20 35
0 12 12 31 26 42 32 25 44 26 44 5z m-510 -24 c0 -11 -4 -20 -10 -20 -5 0 -10
9 -10 20 0 11 5 20 10 20 6 0 10 -9 10 -20z m-742 -33 c2 -19 -1 -27 -12 -27
-11 0 -16 10 -16 31 0 38 24 35 28 -4z m327 -119 c-7 -133 -12 -161 -26 -153
-6 4 -7 49 -4 123 7 129 9 142 25 142 8 0 9 -35 5 -112z m-307 9 c2 -19 -1
-27 -12 -27 -11 0 -16 10 -16 31 0 38 24 35 28 -4z m672 15 c0 -13 -12 -22
-22 -16 -10 6 -1 24 13 24 5 0 9 -4 9 -8z m-28 -82 c-6 -11 -12 -29 -12 -39 0
-11 -5 -23 -10 -26 -16 -10 -24 24 -12 48 5 12 13 31 16 41 5 15 9 17 19 7 9
-9 9 -16 -1 -31z m-627 -20 c8 -13 -4 -50 -16 -50 -5 0 -9 14 -9 30 0 30 13
40 25 20z m989 -49 c13 -20 -71 -131 -99 -131 -21 0 -19 17 8 51 73 96 79 101
91 80z m-404 -30 c0 -20 -13 -35 -23 -25 -7 8 4 44 14 44 5 0 9 -9 9 -19z
m-566 -38 c9 -22 -12 -43 -23 -24 -10 15 -4 41 9 41 4 0 11 -8 14 -17z m546
-33 c0 -10 -4 -22 -10 -25 -5 -3 -10 -16 -10 -28 -1 -22 -31 -67 -46 -67 -4 0
-3 5 4 12 7 7 12 25 12 40 0 16 4 36 9 46 5 9 12 25 15 35 7 22 26 13 26 -13z
m310 -59 c0 -10 -9 -30 -20 -44 -11 -14 -20 -30 -20 -35 0 -6 -16 -20 -35 -32
-24 -15 -35 -29 -35 -46 0 -13 -9 -29 -20 -36 -11 -7 -20 -18 -20 -24 0 -7
-16 -26 -35 -43 -19 -17 -35 -39 -35 -50 0 -11 -8 -26 -17 -33 -23 -17 -58
-64 -79 -106 -10 -19 -28 -39 -41 -45 -12 -5 -23 -15 -23 -20 0 -13 -65 -110
-85 -127 -12 -10 -19 -10 -27 -2 -14 14 31 82 79 121 18 14 33 34 33 44 0 18
13 36 73 97 20 22 37 46 37 54 0 8 11 23 25 34 14 11 25 27 25 35 0 8 14 27
30 40 17 14 30 32 30 41 0 8 11 23 25 34 14 11 25 25 25 32 0 11 10 25 68 100
27 34 42 38 42 11z m-840 -21 c0 -16 -5 -30 -10 -30 -14 0 -24 26 -16 45 10
26 26 16 26 -15z m224 22 c8 -14 -15 -237 -26 -247 -7 -7 -9 17 -4 84 3 52 6
111 6 133 0 35 12 50 24 30z m-204 -142 c0 -29 -4 -40 -15 -40 -10 0 -15 10
-15 33 0 19 3 37 7 40 15 16 23 5 23 -33z m430 15 c0 -8 -4 -15 -10 -15 -5 0
-10 7 -10 15 0 8 5 15 10 15 6 0 10 -7 10 -15z m-20 -59 c0 -8 -4 -17 -9 -21
-12 -7 -24 12 -16 25 9 15 25 12 25 -4z m-392 -67 c-2 -19 -7 -33 -13 -32 -12
3 -19 49 -10 71 10 26 27 -2 23 -39z m372 -4 c0 -8 -4 -15 -9 -15 -13 0 -22
16 -14 24 11 11 23 6 23 -9z m-350 -95 c0 -29 -4 -40 -15 -40 -11 0 -15 11
-15 40 0 29 4 40 15 40 11 0 15 -11 15 -40z m292 -42 c-15 -15 -26 -4 -18 18
5 13 9 15 18 6 9 -9 9 -15 0 -24z m-167 -100 c-7 -109 -12 -128 -27 -128 -6 0
-8 13 -4 31 3 17 6 69 6 115 0 71 3 84 16 84 15 0 16 -11 9 -102z m142 34 c-9
-10 -17 -26 -17 -35 0 -9 -4 -19 -10 -22 -13 -8 -13 20 -1 43 5 9 12 26 16 36
4 15 9 16 17 8 9 -9 7 -16 -5 -30z m-249 -13 c-1 -13 -7 -23 -13 -22 -13 3
-18 30 -11 50 10 24 29 1 24 -28z m19 -85 c8 -22 -15 -44 -26 -25 -10 16 -4
41 10 41 5 0 12 -7 16 -16z m183 6 c0 -5 -4 -10 -10 -10 -5 0 -10 5 -10 10 0
6 5 10 10 10 6 0 10 -4 10 -10z m-20 -60 c0 -19 -11 -26 -23 -14 -8 8 3 34 14
34 5 0 9 -9 9 -20z m-150 -60 c0 -30 -13 -40 -25 -20 -8 13 4 50 16 50 5 0 9
-13 9 -30z m130 -5 c0 -8 -4 -15 -10 -15 -5 0 -10 7 -10 15 0 8 5 15 10 15 6
0 10 -7 10 -15z m100 1 c0 -7 -8 -24 -17 -37 -10 -13 -23 -33 -29 -43 -5 -11
-20 -26 -32 -34 -19 -13 -22 -12 -28 2 -4 11 2 26 15 40 11 12 21 26 21 31 0
14 42 55 57 55 7 0 13 -6 13 -14z m-130 -66 c0 -5 -4 -10 -10 -10 -5 0 -10 5
-10 10 0 6 5 10 10 10 6 0 10 -4 10 -10z"/>
<path d="M3004 714 c3 -8 6 -18 6 -20 0 -2 5 -4 10 -4 16 0 11 27 -6 34 -12 5
-15 2 -10 -10z"/>
</g>
</svg>
